<svg width="900" height="360" viewBox="0 0 900 360" fill="none" xmlns="http://www.w3.org/2000/svg">
<g clip-path="url(#clip0_466_1980)">
<path d="M185.341 310.122L80.9341 240.981C78.4841 239.359 77.028 236.601 77.07 233.663L77.4473 207.215L113.345 184.447C114.589 183.658 116.014 183.2 117.485 183.118L258.375 175.245C260.139 175.146 261.891 175.591 263.394 176.521L307.016 203.487C309.56 205.059 311.108 207.837 311.108 210.827V233.563C311.108 236.556 309.558 239.335 307.011 240.907L194.639 310.27C191.775 312.038 188.146 311.98 185.341 310.122Z" fill="#BABABA"/>
<path d="M184.387 281.247L81.1745 216.429C76.3369 213.391 76.1505 206.408 80.8191 203.116L184.022 130.349C186.893 128.324 190.704 128.242 193.66 130.141L306.91 202.914C311.961 206.159 311.77 213.605 306.559 216.587L193.264 281.429C190.498 283.011 187.086 282.942 184.387 281.247Z" fill="#E0E0E0"/>
<g filter="url(#filter0_d_466_1980)">
<path d="M269.511 182.644V200.393C269.511 210.466 269.511 210.701 263.41 214.174C257.309 217.647 222.655 237.489 208.264 246.682C189.49 258.674 189.49 258.195 170.248 246.682C151.005 235.17 121.934 217.851 118.203 215.714C112.922 212.69 109 207.348 109 198.474V184.563C109 184.563 168.136 215.135 178.93 221.195C189.725 227.255 189.256 226.775 199.112 221.195C208.968 215.614 269.511 182.644 269.511 182.644Z" fill="#554D4B"/>
</g>
<path d="M118.036 109.558L180.074 73.3578C185.747 70.0471 192.764 70.0472 198.438 73.3578L260.475 109.558C266.071 112.823 269.511 118.814 269.511 125.293V199.207C269.511 205.653 266.106 211.618 260.556 214.895L198.519 251.526C192.804 254.9 185.707 254.9 179.993 251.526L117.955 214.895C112.405 211.618 109 205.653 109 199.207V125.293C109 118.814 112.441 112.823 118.036 109.558Z" fill="#D5BCB7"/>
<path d="M269.511 182.644V200.393C269.511 210.466 269.511 210.701 263.41 214.174C257.309 217.647 222.655 237.489 208.264 246.682C189.49 258.674 189.49 258.195 170.248 246.682C151.005 235.17 121.934 217.852 118.203 215.714C112.922 212.69 109 207.348 109 198.474V184.563C109 184.563 168.136 215.135 178.93 221.195C189.725 227.255 189.256 226.775 199.112 221.195C208.968 215.614 269.511 182.644 269.511 182.644Z" fill="#554D4B"/>
<path d="M269.511 185.289C269.511 185.289 227.037 209.267 208.264 221.259C189.49 233.251 189.49 232.772 170.248 221.259C151.005 209.747 121.934 192.428 118.203 190.291C112.922 187.267 109 184.803 109 184.803V157.221C109 157.221 168.136 189.712 178.93 195.772C189.725 201.832 189.256 201.352 199.112 195.772C208.968 190.191 269.511 157.221 269.511 157.221V185.289Z" fill="#B09792"/>
<path d="M269.511 158.427C269.511 158.427 227.037 182.405 208.263 194.397C189.49 206.389 189.49 205.909 170.248 194.397C150.24 182.427 109.235 157.461 109.235 157.461V131.078C109.235 131.078 168.136 162.849 178.93 168.909C189.725 174.97 189.256 174.49 199.112 168.909C208.967 163.329 269.511 130.359 269.511 130.359V158.427Z" fill="#C1A7A1"/>
<path d="M387.905 188.73H400.195C413.004 188.73 419.408 185.057 419.408 177.711V155.249C419.408 147.903 412.957 144.23 400.054 144.23C387.245 144.23 380.841 147.903 380.841 155.249V238.457C380.841 240.623 378.958 241.706 375.19 241.706C371.423 241.706 369.54 240.623 369.54 238.457V156.662C369.54 148.845 372.318 143.194 377.875 139.71C383.431 136.131 390.824 134.341 400.054 134.341C409.284 134.341 416.677 136.131 422.233 139.71C427.884 143.194 430.71 148.845 430.71 156.662V176.298C430.71 185.057 426.613 190.52 418.419 192.686C420.585 194.663 422.28 197.866 423.505 202.292C430.192 226.308 433.535 238.598 433.535 239.163C433.535 240.859 431.887 241.706 428.59 241.706C425.294 241.706 423.316 240.623 422.657 238.457L413.757 206.248C412.91 202.951 411.732 200.879 410.225 200.032C408.719 199.09 405.422 198.619 400.336 198.619H387.905C386.021 198.619 385.079 196.971 385.079 193.675C385.079 190.378 386.021 188.73 387.905 188.73Z" fill="#554D4B"/>
<path d="M525.862 156.662V238.457C525.862 240.623 523.979 241.706 520.212 241.706C516.444 241.706 514.561 240.623 514.561 238.457V200.173H471.756V238.457C471.756 240.623 469.873 241.706 466.105 241.706C462.338 241.706 460.455 240.623 460.455 238.457V156.662C460.455 151.388 462.009 147.056 465.116 143.665C468.224 140.18 472.18 137.779 476.983 136.46C481.786 135.048 487.437 134.341 493.935 134.341C515.22 134.341 525.862 141.781 525.862 156.662ZM471.756 155.249V190.284H514.561V155.249C514.561 147.903 507.403 144.23 493.088 144.23C478.867 144.23 471.756 147.903 471.756 155.249Z" fill="#554D4B"/>
<path d="M561.126 228.286V231.111H614.243C616.127 231.111 617.069 232.759 617.069 236.056C617.069 239.352 616.127 241 614.243 241H552.65C550.766 241 549.824 239.352 549.824 236.056V228.003C549.824 224.613 550.295 222.023 551.237 220.233C552.273 218.35 552.932 217.172 553.215 216.702C553.591 216.137 554.298 215.242 555.334 214.017C556.464 212.699 557.217 211.804 557.594 211.333C559.478 208.979 561.408 206.813 563.386 204.835L599.41 164.29C601.764 161.559 603.366 159.393 604.213 157.792C605.155 156.191 605.626 154.26 605.626 152V146.349H558.159C556.276 146.349 555.334 144.701 555.334 141.405C555.334 138.108 556.276 136.46 558.159 136.46H614.102C615.986 136.46 616.927 138.108 616.927 141.405V152.283C616.927 155.673 616.409 158.31 615.373 160.194C614.432 161.983 613.772 163.16 613.396 163.725C613.113 164.196 612.407 165.091 611.277 166.41C610.241 167.634 609.534 168.481 609.158 168.952C607.274 171.307 605.343 173.473 603.366 175.451L567.342 215.995C564.987 218.726 563.339 220.893 562.397 222.494C561.55 224.095 561.126 226.025 561.126 228.286Z" fill="#554D4B"/>
<path d="M645.143 228.286V231.111H698.26C700.144 231.111 701.086 232.759 701.086 236.056C701.086 239.352 700.144 241 698.26 241H636.667C634.783 241 633.841 239.352 633.841 236.056V228.003C633.841 224.613 634.312 222.023 635.254 220.233C636.29 218.35 636.949 217.172 637.232 216.702C637.608 216.137 638.315 215.242 639.351 214.017C640.481 212.699 641.234 211.804 641.611 211.333C643.495 208.979 645.425 206.813 647.403 204.835L683.427 164.29C685.781 161.559 687.382 159.393 688.23 157.792C689.172 156.191 689.643 154.26 689.643 152V146.349H642.176C640.292 146.349 639.351 144.701 639.351 141.405C639.351 138.108 640.292 136.46 642.176 136.46H698.119C700.003 136.46 700.944 138.108 700.944 141.405V152.283C700.944 155.673 700.426 158.31 699.39 160.194C698.449 161.983 697.789 163.16 697.413 163.725C697.13 164.196 696.424 165.091 695.294 166.41C694.258 167.634 693.551 168.481 693.174 168.952C691.291 171.307 689.36 173.473 687.382 175.451L651.359 215.995C649.004 218.726 647.356 220.893 646.414 222.494C645.567 224.095 645.143 226.025 645.143 228.286Z" fill="#554D4B"/>
<path d="M788.917 156.662V220.798C788.917 228.615 785.856 234.313 779.734 237.892C773.707 241.377 765.702 243.119 755.718 243.119C734.245 243.119 723.509 235.679 723.509 220.798V156.662C723.509 148.845 726.523 143.194 732.55 139.71C738.672 136.131 746.724 134.341 756.707 134.341C778.18 134.341 788.917 141.781 788.917 156.662ZM734.81 155.249V222.211C734.81 229.557 741.921 233.23 756.142 233.23C770.458 233.23 777.615 229.557 777.615 222.211V155.249C777.615 147.903 770.458 144.23 756.142 144.23C741.921 144.23 734.81 147.903 734.81 155.249Z" fill="#554D4B"/>
</g>
<defs>
<filter id="filter0_d_466_1980" x="97.0142" y="177.85" width="184.483" height="96.8245" filterUnits="userSpaceOnUse" color-interpolation-filters="sRGB">
<feFlood flood-opacity="0" result="BackgroundImageFix"/>
<feColorMatrix in="SourceAlpha" type="matrix" values="0 0 0 0 0 0 0 0 0 0 0 0 0 0 0 0 0 0 127 0" result="hardAlpha"/>
<feOffset dy="7.19146"/>
<feGaussianBlur stdDeviation="5.99288"/>
<feComposite in2="hardAlpha" operator="out"/>
<feColorMatrix type="matrix" values="0 0 0 0 0 0 0 0 0 0 0 0 0 0 0 0 0 0 0.25 0"/>
<feBlend mode="normal" in2="BackgroundImageFix" result="effect1_dropShadow_466_1980"/>
<feBlend mode="normal" in="SourceGraphic" in2="effect1_dropShadow_466_1980" result="shape"/>
</filter>
<clipPath id="clip0_466_1980">
<rect width="900" height="360" fill="white"/>
</clipPath>
</defs>
</svg>
