<svg width="360" height="360" viewBox="0 0 360 360" fill="none" xmlns="http://www.w3.org/2000/svg">
<g clip-path="url(#clip0_466_2048)">
<path d="M176.144 296.026L76.4825 230.028C74.1439 228.479 72.7541 225.847 72.7941 223.042L73.1543 197.796L107.42 176.063C108.608 175.31 109.968 174.873 111.372 174.795L245.858 167.279C247.542 167.185 249.215 167.61 250.649 168.497L292.288 194.237C294.716 195.738 296.194 198.39 296.194 201.244V222.947C296.194 225.803 294.714 228.456 292.283 229.957L185.019 296.167C182.286 297.854 178.821 297.799 176.144 296.026Z" fill="#BABABA"/>
<path d="M175.234 268.463L76.712 206.591C72.0943 203.692 71.9164 197.026 76.3728 193.884L174.884 124.424C177.625 122.491 181.263 122.413 184.084 124.226L292.187 193.69C297.009 196.788 296.826 203.896 291.852 206.742L183.706 268.637C181.066 270.147 177.809 270.081 175.234 268.463Z" fill="#E0E0E0"/>
<g filter="url(#filter0_d_466_2048)">
<path d="M256.488 174.342V191.284C256.488 200.899 256.488 201.124 250.664 204.439C244.84 207.754 211.761 226.694 198.024 235.469C180.104 246.916 180.104 246.459 161.736 235.469C143.369 224.48 115.619 207.949 112.057 205.909C107.016 203.022 103.273 197.923 103.273 189.452V176.174C103.273 176.174 159.72 205.356 170.024 211.141C180.328 216.925 179.88 216.467 189.288 211.141C198.696 205.814 256.488 174.342 256.488 174.342Z" fill="#554D4B"/>
</g>
<path d="M111.898 104.578L171.116 70.0233C176.532 66.8632 183.229 66.8632 188.645 70.0233L247.862 104.578C253.204 107.695 256.488 113.414 256.488 119.598V190.152C256.488 196.305 253.237 201.999 247.94 205.127L188.722 240.093C183.268 243.314 176.493 243.314 171.038 240.093L111.821 205.127C106.523 201.999 103.273 196.305 103.273 190.152V119.598C103.273 113.414 106.557 107.695 111.898 104.578Z" fill="#D5BCB7"/>
<path d="M256.488 174.342V191.284C256.488 200.9 256.488 201.124 250.664 204.439C244.84 207.754 211.761 226.694 198.024 235.469C180.104 246.916 180.104 246.459 161.736 235.469C143.369 224.48 115.619 207.949 112.057 205.909C107.016 203.022 103.273 197.923 103.273 189.453V176.174C103.273 176.174 159.72 205.356 170.024 211.141C180.328 216.925 179.88 216.467 189.288 211.141C198.696 205.814 256.488 174.342 256.488 174.342Z" fill="#554D4B"/>
<path d="M256.488 176.867C256.488 176.867 215.944 199.755 198.024 211.202C180.104 222.649 180.104 222.191 161.736 211.202C143.369 200.213 115.619 183.682 112.057 181.642C107.016 178.755 103.273 176.403 103.273 176.403V150.075C103.273 150.075 159.72 181.088 170.024 186.873C180.328 192.658 179.88 192.2 189.288 186.873C198.696 181.546 256.488 150.075 256.488 150.075V176.867Z" fill="#B09792"/>
<path d="M256.488 151.225C256.488 151.225 215.944 174.114 198.024 185.561C180.104 197.008 180.104 196.55 161.736 185.561C142.639 174.135 103.497 150.304 103.497 150.304V125.12C103.497 125.12 159.72 155.447 170.024 161.232C180.328 167.016 179.88 166.559 189.288 161.232C198.696 155.905 256.488 124.434 256.488 124.434V151.225Z" fill="#C1A7A1"/>
</g>
<defs>
<filter id="filter0_d_466_2048" x="91.8317" y="169.766" width="176.097" height="92.4234" filterUnits="userSpaceOnUse" color-interpolation-filters="sRGB">
<feFlood flood-opacity="0" result="BackgroundImageFix"/>
<feColorMatrix in="SourceAlpha" type="matrix" values="0 0 0 0 0 0 0 0 0 0 0 0 0 0 0 0 0 0 127 0" result="hardAlpha"/>
<feOffset dy="6.86458"/>
<feGaussianBlur stdDeviation="5.72048"/>
<feComposite in2="hardAlpha" operator="out"/>
<feColorMatrix type="matrix" values="0 0 0 0 0 0 0 0 0 0 0 0 0 0 0 0 0 0 0.25 0"/>
<feBlend mode="normal" in2="BackgroundImageFix" result="effect1_dropShadow_466_2048"/>
<feBlend mode="normal" in="SourceGraphic" in2="effect1_dropShadow_466_2048" result="shape"/>
</filter>
<clipPath id="clip0_466_2048">
<rect width="360" height="360" fill="white"/>
</clipPath>
</defs>
</svg>
