<svg width="360" height="360" viewBox="0 0 360 360" fill="#C1A7A1" xmlns="http://www.w3.org/2000/svg">
<path d="M166.382 60.7577L106.461 95.7231C101.056 98.8769 97.7326 104.664 97.7326 110.922L97.9593 115.304C97.9593 115.304 154.851 145.992 165.278 151.845C175.103 157.361 175.267 157.268 183.22 152.728C183.707 152.45 184.222 152.156 184.771 151.845C194.291 146.455 252.77 114.609 252.77 114.609L252.77 110.922C252.77 104.664 249.446 98.8769 244.041 95.7231L184.12 60.7577C178.64 57.5599 171.862 57.5599 166.382 60.7577Z" />
<path fill-rule="evenodd" clip-rule="evenodd" d="M253.123 174.541V191.684C253.123 201.414 253.123 201.641 247.23 204.995C241.337 208.35 207.865 227.515 193.964 236.395C176.198 247.743 175.839 247.528 158.351 237.056C157.989 236.84 157.621 236.62 157.245 236.395C138.659 225.275 110.579 208.547 106.975 206.483C102.201 203.748 98.5763 199.053 98.1321 191.434C99.2319 197.342 102.498 201.167 106.621 203.529C110.225 205.593 138.305 222.321 156.891 233.44C157.267 233.665 157.636 233.886 157.997 234.102C175.485 244.574 175.845 244.789 193.611 233.44C207.511 224.561 240.983 205.396 246.876 202.041C252.77 198.687 252.77 198.46 252.77 188.73V174.141C252.77 174.141 211.744 197.301 193.611 208.885C175.845 220.233 175.485 220.018 157.997 209.546L157.978 209.535C157.623 209.322 157.261 209.105 156.891 208.885C138.305 197.765 110.225 181.037 106.621 178.973C101.521 176.051 97.7326 173.672 97.7326 173.672V175.236L70.7727 194.245C68.7783 195.651 67.7012 197.755 67.5243 199.918L67.1622 200.148L66.7977 225.694C66.7572 228.532 68.1636 231.196 70.53 232.763L171.376 299.545C174.086 301.34 177.591 301.395 180.357 299.688L288.897 232.691C291.356 231.172 292.854 228.488 292.854 225.598V203.637C292.854 202.97 292.774 202.313 292.621 201.68C293.034 198.845 291.89 195.809 289.153 194.05L253.063 170.859C253.106 173.213 253.123 174.541 253.123 174.541ZM292.338 202.913C291.786 204.656 290.608 206.23 288.814 207.257L179.382 269.887C176.711 271.416 173.415 271.348 170.809 269.712L71.1159 207.104C68.5808 205.512 67.3681 202.798 67.5093 200.141C66.4955 203.331 67.6002 207.062 70.7623 209.048L170.455 271.655C173.061 273.292 176.357 273.359 179.029 271.83L288.46 209.2C290.904 207.802 292.205 205.387 292.338 202.913Z" />
<path d="M193.611 180.751C211.744 169.168 252.77 146.008 252.77 146.008L252.77 171.954C252.77 171.954 211.744 195.114 193.611 206.698C175.845 218.046 175.485 217.831 157.997 207.359C157.636 207.143 157.267 206.922 156.891 206.698C138.305 195.578 110.225 178.85 106.621 176.786C101.521 173.864 97.7326 171.485 97.7326 171.485V144.844L97.9593 144.968V145.075C97.9593 145.075 137.567 169.19 156.891 180.751C157.267 180.976 157.636 181.197 157.997 181.413C175.485 191.885 175.845 192.1 193.611 180.751Z" />
<path d="M193.384 178.573C211.517 166.989 252.543 143.829 252.543 143.829V116.719C252.543 116.719 194.064 148.564 184.544 153.954C183.995 154.265 183.48 154.559 182.993 154.837C175.041 159.377 174.877 159.47 165.051 153.954C154.625 148.101 97.7326 117.414 97.7326 117.414V142.897C97.7326 142.897 137.34 167.011 156.665 178.573C157.041 178.797 157.409 179.018 157.77 179.234C175.258 189.706 175.618 189.921 193.384 178.573Z" />
</svg>
